<svg width="24" height="24" viewBox="0 0 24 24" fill="none" xmlns="http://www.w3.org/2000/svg">
<g clip-path="url(#clip0_2432_2011)">
<path d="M21.8359 0H2.16408C0.970781 0 0 0.970781 0 2.16408V21.836C0 23.0292 0.970781 24 2.16408 24H21.836C23.0292 24 24 23.0292 24 21.8359V2.16408C24 0.970781 23.0292 0 21.8359 0ZM21.8359 22.5938H15.5098V21.1758H21.8359C22.1025 21.1758 22.3577 21.127 22.5938 21.0385V21.8359C22.5938 22.2538 22.2538 22.5938 21.8359 22.5938ZM1.40625 21.8359V21.0385C1.64222 21.127 1.89755 21.1758 2.16408 21.1758H8.45508V22.5938H2.16408C1.74619 22.5938 1.40625 22.2538 1.40625 21.8359ZM2.16408 1.40625H8.45508V2.82422H4.93945C4.55114 2.82422 4.23633 3.13903 4.23633 3.52734C4.23633 3.91828 3.91828 4.23633 3.52734 4.23633C3.13903 4.23633 2.82422 4.55114 2.82422 4.93945V7.76367C2.82422 8.15198 3.13903 8.4668 3.52734 8.4668C3.91828 8.4668 4.23633 8.78484 4.23633 9.17578C4.23633 9.56409 4.55114 9.87891 4.93945 9.87891H8.45508V11.2969H2.16408C1.74619 11.2969 1.40625 10.9569 1.40625 10.539V7.81247V4.98825V2.16403C1.40625 1.74619 1.74619 1.40625 2.16408 1.40625ZM2.16408 16.9453C1.74619 16.9453 1.40625 16.6054 1.40625 16.1875V15.3901C1.64222 15.4786 1.89755 15.5273 2.16408 15.5273H8.45508V16.9453H2.16408ZM2.16408 14.1211C1.74623 14.1211 1.40625 13.7812 1.40625 13.3633V12.5659C1.64222 12.6544 1.89755 12.7031 2.16408 12.7031H8.45508V14.1211H2.16408ZM2.16408 18.3516H8.45508V19.7695H2.16408C1.74623 19.7695 1.40625 19.4296 1.40625 19.0117V18.2143C1.64222 18.3028 1.89755 18.3516 2.16408 18.3516ZM4.23047 7.18069V5.52248C4.83216 5.30981 5.30977 4.83216 5.52244 4.23052H8.45503V8.4727H5.52244C5.30977 7.87097 4.83216 7.39336 4.23047 7.18069ZM9.86133 1.40625H14.1035V22.5938H9.86133V1.40625ZM22.5938 2.16408V10.5391C22.5938 10.9569 22.2538 11.2969 21.8359 11.2969H15.5098V9.87895H19.0254C19.4137 9.87895 19.7285 9.56414 19.7285 9.17583C19.7285 8.78489 20.0466 8.46684 20.4375 8.46684C20.8258 8.46684 21.1406 8.15203 21.1406 7.76372V4.9395C21.1406 4.55119 20.8258 4.23637 20.4375 4.23637C20.0466 4.23637 19.7285 3.91833 19.7285 3.52739C19.7285 3.13908 19.4137 2.82427 19.0254 2.82427H15.5098V1.40625H21.8359C22.2538 1.40625 22.5938 1.74619 22.5938 2.16408ZM19.7344 5.52244V7.18064C19.1327 7.39331 18.6551 7.87097 18.4424 8.47261H15.5098V4.23042H18.4424C18.6551 4.83216 19.1327 5.30977 19.7344 5.52244ZM21.8359 14.1211H15.5098V12.7031H21.8359C22.1025 12.7031 22.3577 12.6544 22.5938 12.5659V13.3633C22.5938 13.7812 22.2538 14.1211 21.8359 14.1211ZM22.5938 19.0117C22.5938 19.4295 22.2538 19.7695 21.8359 19.7695H15.5098V18.3516H21.8359C22.1025 18.3516 22.3577 18.3028 22.5938 18.2143V19.0117ZM22.5938 16.1875C22.5938 16.6053 22.2538 16.9453 21.8359 16.9453H15.5098V15.5273H21.8359C22.1025 15.5273 22.3577 15.4786 22.5938 15.3901V16.1875Z" fill="#BACED0"/>
</g>
<defs>
<clipPath id="clip0_2432_2011">
<rect width="24" height="24" fill="white"/>
</clipPath>
</defs>
</svg>
