<svg width="40" height="40" viewBox="0 0 40 40" fill="none" xmlns="http://www.w3.org/2000/svg">
<g clip-path="url(#clip0_2432_2415)">
<path d="M33.9835 17.973C33.9835 17.9648 33.9838 17.9568 33.9838 17.9487C33.9838 8.57928 26.3613 0.956787 16.992 0.956787C7.62265 0.956787 0 8.57936 0 17.9487C0 27.3181 7.62249 34.9406 16.9919 34.9406C18.0127 34.9406 19.0128 34.85 19.9845 34.6766C22.0276 37.3301 25.2347 39.0433 28.8349 39.0433C34.9914 39.0433 40.0001 34.0345 40.0001 27.878C40 23.5773 37.5556 19.8374 33.9835 17.973ZM28.8348 36.5713C24.0413 36.5713 20.1415 32.6715 20.1415 27.878C20.1415 23.0845 24.0413 19.1847 28.8348 19.1847C33.6282 19.1847 37.528 23.0845 37.528 27.878C37.528 32.6715 33.6282 36.5713 28.8348 36.5713ZM30.0597 11.6231C30.6532 12.8441 31.0798 14.1604 31.3112 15.5421L30.2858 16.2871L27.8338 14.5056L28.7704 11.6231H30.0597ZM19.1279 3.58628L19.5196 4.79197L17.0676 6.57348L14.6156 4.79197L15.0146 3.56403C15.6613 3.47562 16.3212 3.42881 16.9919 3.42881C17.7175 3.42881 18.4306 3.48303 19.1279 3.58628ZM5.26022 11.479L6.19679 14.3614L3.74479 16.1429L2.69896 15.3831C2.94566 14.0049 3.3884 12.6939 3.9957 11.479H5.26022ZM10.1389 30.7465C8.91964 30.0909 7.80451 29.2661 6.8246 28.3038L7.21353 27.1069H10.2444L11.181 29.9894L10.1389 30.7465ZM16.9919 32.4685C15.5414 32.4685 14.1402 32.2537 12.8175 31.8559L13.3606 31.4614C13.7937 31.1466 13.975 30.5888 13.8096 30.0795L12.3179 25.4888C12.1525 24.9796 11.6779 24.6348 11.1424 24.6348H6.31553C5.78001 24.6348 5.30546 24.9796 5.14 25.4888L4.95443 26.06C3.44501 23.8272 2.54034 21.1538 2.47623 18.2768L3.01834 18.6707C3.23497 18.828 3.48992 18.9067 3.74487 18.9067C3.99982 18.9067 4.25477 18.828 4.4714 18.6707L8.37646 15.8334C8.80964 15.5187 8.99092 14.9608 8.82546 14.4515L7.33384 9.86086C7.16838 9.35162 6.69383 9.00677 6.15831 9.00677H5.55967C7.25556 6.84326 9.55149 5.17208 12.1943 4.24417L11.9871 4.88195C11.8216 5.39127 12.0029 5.94912 12.4361 6.2639L16.3412 9.10112C16.5578 9.25851 16.8127 9.3372 17.0677 9.3372C17.3226 9.3372 17.5776 9.25851 17.7942 9.10112L21.6992 6.2639C22.1325 5.94912 22.3137 5.39127 22.1482 4.88195L21.9606 4.30457C24.5893 5.26487 26.8646 6.96488 28.5347 9.15089H27.8724C27.337 9.15089 26.8623 9.49574 26.6969 10.005L25.2052 14.5956C25.0396 15.1048 25.2209 15.6628 25.6542 15.9776L26.8979 16.8812C24.9859 17.2169 23.2402 18.041 21.7939 19.2193L22.3848 17.4007C22.5504 16.8915 22.3691 16.3335 21.9358 16.0188L17.7942 13.0096C17.3609 12.695 16.7744 12.695 16.3412 13.0096L12.1994 16.0188C11.7663 16.3335 11.585 16.8914 11.7504 17.4007L13.3325 22.2697C13.4979 22.7789 13.9725 23.1238 14.508 23.1238H18.7338C18.0518 24.567 17.6695 26.1786 17.6695 27.878C17.6695 29.4779 18.0084 31 18.6171 32.3771C18.0834 32.4368 17.5413 32.4685 16.9919 32.4685ZM19.7563 17.4909L18.7293 20.6517H15.4059L14.3789 17.4909L17.0676 15.5374L19.7563 17.4909Z" fill="#003135"/>
<path d="M28.8541 26.6807H28.8154C28.557 26.6807 28.3469 26.4705 28.3469 26.2122V26.1348C28.3469 25.8764 28.557 25.6663 28.8154 25.6663H30.5585C31.2411 25.6663 31.7946 25.1129 31.7946 24.4303C31.7946 23.7477 31.2411 23.1943 30.5585 23.1943H30.0514V22.7065C30.0514 22.0239 29.498 21.4705 28.8154 21.4705C28.1327 21.4705 27.5793 22.0239 27.5793 22.7065V23.4677C26.574 23.9355 25.8749 24.9548 25.8749 26.1348V26.2123C25.8749 27.8337 27.194 29.1528 28.8154 29.1528H28.8541C29.1124 29.1528 29.3226 29.3629 29.3226 29.6212C29.3226 29.8795 29.1124 30.0897 28.8541 30.0897H27.111C26.4284 30.0897 25.875 30.6431 25.875 31.3257C25.875 32.0083 26.4284 32.5617 27.111 32.5617H27.6181V33.0495C27.6181 33.7321 28.1715 34.2855 28.8541 34.2855C29.5367 34.2855 30.0901 33.7321 30.0901 33.0495V32.2883C31.0955 31.8205 31.7946 30.8012 31.7946 29.6212C31.7946 27.9998 30.4755 26.6807 28.8541 26.6807Z" fill="#003135"/>
</g>
<defs>
<clipPath id="clip0_2432_2415">
<rect width="40" height="40" fill="white"/>
</clipPath>
</defs>
</svg>
